<?xml version="1.0" encoding="UTF-8" standalone="no"?>
<svg
   xmlns:dc="http://purl.org/dc/elements/1.1/"
   xmlns:cc="http://creativecommons.org/ns#"
   xmlns:rdf="http://www.w3.org/1999/02/22-rdf-syntax-ns#"
   xmlns:svg="http://www.w3.org/2000/svg"
   xmlns="http://www.w3.org/2000/svg"
   xmlns:sodipodi="http://sodipodi.sourceforge.net/DTD/sodipodi-0.dtd"
   xmlns:inkscape="http://www.inkscape.org/namespaces/inkscape"
   version="1.1"
   id="Layer_1"
   x="0px"
   y="0px"
   width="612px"
   height="792px"
   viewBox="0 0 612 792"
   enable-background="new 0 0 612 792"
   xml:space="preserve"
   sodipodi:docname="Eclipse2014_RGB-new.svg"
   inkscape:version="1.0 (4035a4fb49, 2020-05-01)"><metadata
   id="metadata144"><rdf:RDF><cc:Work
       rdf:about=""><dc:format>image/svg+xml</dc:format><dc:type
         rdf:resource="http://purl.org/dc/dcmitype/StillImage" /><dc:title /></cc:Work></rdf:RDF></metadata><defs
   id="defs142" /><sodipodi:namedview
   inkscape:document-rotation="0"
   pagecolor="#ffffff"
   bordercolor="#666666"
   borderopacity="1"
   objecttolerance="10"
   gridtolerance="10"
   guidetolerance="10"
   inkscape:pageopacity="0"
   inkscape:pageshadow="2"
   inkscape:window-width="1920"
   inkscape:window-height="1001"
   id="namedview140"
   showgrid="false"
   inkscape:zoom="0.88383838"
   inkscape:cx="306"
   inkscape:cy="396"
   inkscape:window-x="1911"
   inkscape:window-y="-9"
   inkscape:window-maximized="1"
   inkscape:current-layer="Layer_1" />













<g
   transform="translate(180.33,-2.2628572)"
   id="g62"><path
     id="path78"
     d="M 101.124,392.936 H 84.38 c 2.217,7.605 6.331,14.421 12.354,20.445 9.602,9.603 21.148,14.398 34.65,14.398 2.699,0 5.314,-0.201 7.854,-0.584 10.17,-1.535 19.074,-6.133 26.703,-13.814 6.062,-6.022 10.205,-12.84 12.439,-20.445 h -6.795 -9.936 z"
     fill="#2c2255" /><g
     id="g84">
	<path
   id="path80"
   d="m 91.891,370.194 h -8.747 c -0.32,1.922 -0.538,3.884 -0.637,5.896 h 10.396 5.215 75.275 6.871 c -0.1,-2.012 -0.318,-3.974 -0.641,-5.896"
   fill="#2c2255" />
	<path
   id="path82"
   d="m 82.507,381.565 c 0.099,2.013 0.316,3.975 0.637,5.896 h 9.094 6.893 73.648 6.846 c 0.322,-1.921 0.542,-3.883 0.642,-5.896"
   fill="#2c2255" />
</g><path
     id="path86"
     d="m 178.382,364.718 c -2.232,-7.626 -6.376,-14.474 -12.441,-20.54 -7.609,-7.609 -16.488,-12.174 -26.625,-13.71 -2.564,-0.389 -5.205,-0.593 -7.932,-0.593 -13.502,0 -25.049,4.769 -34.65,14.303 -6.025,6.066 -10.141,12.914 -12.357,20.54"
     fill="#2c2255" /><g
     id="g90">
	<path
   id="path88"
   d="m 79.6,378.829 c 0,-25.824 19.395,-47.281 44.626,-51.055 -0.626,-0.023 -1.255,-0.048 -1.887,-0.048 -28.314,0 -51.269,22.88 -51.269,51.103 0,28.224 22.954,51.103 51.269,51.103 0.634,0 1.263,-0.024 1.891,-0.047 C 98.995,426.111 79.6,404.654 79.6,378.829 Z"
   fill="#f7941e" />
</g><g
     id="g129">
	
		<linearGradient
   gradientTransform="matrix(1,0,0,-1,0,793)"
   y2="432.21109"
   x2="131.3853"
   y1="358.5762"
   x1="131.3853"
   gradientUnits="userSpaceOnUse"
   id="SVGID_1_">
		<stop
   id="stop108"
   style="stop-color:#473788"
   offset="0.3033" />
		<stop
   id="stop110"
   style="stop-color:#2C2255"
   offset="0.872" />
	</linearGradient>
	<path
   style="fill:url(#SVGID_1_)"
   id="path113"
   d="m 164.653,376.089 c -0.164,-2.021 -0.504,-3.992 -1.012,-5.896 h -64.51 c -0.508,1.903 -0.849,3.874 -1.013,5.896 z"
   fill="url(#SVGID_1_)" />
	
		<linearGradient
   gradientTransform="matrix(1,0,0,-1,0,793)"
   y2="432.21011"
   x2="131.3853"
   y1="358.5752"
   x1="131.3853"
   gradientUnits="userSpaceOnUse"
   id="SVGID_2_">
		<stop
   id="stop115"
   style="stop-color:#473788"
   offset="0.3033" />
		<stop
   id="stop117"
   style="stop-color:#2C2255"
   offset="0.872" />
	</linearGradient>
	<path
   style="fill:url(#SVGID_2_)"
   id="path120"
   d="M 164.653,381.565 H 98.119 c 0.164,2.021 0.503,3.992 1.012,5.896 h 64.511 c 0.508,-1.904 0.847,-3.875 1.011,-5.896 z"
   fill="url(#SVGID_2_)" />
	
		<linearGradient
   gradientTransform="matrix(1,0,0,-1,0,793)"
   y2="432.2084"
   x2="131.3853"
   y1="358.57709"
   x1="131.3853"
   gradientUnits="userSpaceOnUse"
   id="SVGID_3_">
		<stop
   id="stop122"
   style="stop-color:#473788"
   offset="0.3033" />
		<stop
   id="stop124"
   style="stop-color:#2C2255"
   offset="0.8631" />
	</linearGradient>
	<path
   style="fill:url(#SVGID_3_)"
   id="path127"
   d="m 131.386,412.217 c 13.397,0 24.945,-7.893 30.263,-19.281 h -60.526 c 5.318,11.388 16.866,19.281 30.263,19.281 z"
   fill="url(#SVGID_3_)" />
</g><g
     id="g137">
	<path
   id="path131"
   d="m 93.188,381.565 h 4.884 66.706 8.763 6.657 c 0.046,-0.871 0.072,-1.748 0.072,-2.631 0,-0.955 -0.035,-1.902 -0.089,-2.845 H 173.54 164.777 98.071 92.842 82.507 c -0.054,0.942 -0.089,1.89 -0.089,2.845 0,0.883 0.026,1.76 0.072,2.631 z"
   fill="#ffffff" />
	<path
   id="path133"
   d="M 100.928,364.718 H 84.376 c -0.544,1.783 -0.895,3.612 -1.232,5.476 h 8.525 7.259 64.679 9.16 6.547 c -0.338,-1.863 -0.773,-3.692 -1.316,-5.476"
   fill="#ffffff" />
	<path
   id="path135"
   d="m 173.026,387.46 h -9.16 -64.678 -6.912 -9.133 c 0.328,1.863 0.701,3.691 1.236,5.476 h 16.807 60.682 9.962 6.488 c 0.534,-1.784 0.965,-3.612 1.294,-5.476 z"
   fill="#ffffff" />
</g></g>
</svg>
