<?xml version="1.0" encoding="UTF-8" standalone="no"?>
<svg
   xmlns:dc="http://purl.org/dc/elements/1.1/"
   xmlns:cc="http://creativecommons.org/ns#"
   xmlns:rdf="http://www.w3.org/1999/02/22-rdf-syntax-ns#"
   xmlns:svg="http://www.w3.org/2000/svg"
   xmlns="http://www.w3.org/2000/svg"
   xmlns:sodipodi="http://sodipodi.sourceforge.net/DTD/sodipodi-0.dtd"
   xmlns:inkscape="http://www.inkscape.org/namespaces/inkscape"
   inkscape:version="1.0 (4035a4fb49, 2020-05-01)"
   sodipodi:docname="c-programming-language-seeklogo.com.svg"
   id="svg8"
   version="1.1"
   preserveAspectRatio="xMidYMid"
   viewBox="0 0 256 288"
   height="2500"
   width="2222">
  <metadata
     id="metadata14">
    <rdf:RDF>
      <cc:Work
         rdf:about="">
        <dc:format>image/svg+xml</dc:format>
        <dc:type
           rdf:resource="http://purl.org/dc/dcmitype/StillImage" />
      </cc:Work>
    </rdf:RDF>
  </metadata>
  <defs
     id="defs12">
    <rect
       id="rect841"
       height="49.62424"
       width="49.277217"
       y="108.25667"
       x="102.71871" />
  </defs>
  <sodipodi:namedview
     inkscape:current-layer="svg8"
     inkscape:window-maximized="1"
     inkscape:window-y="-9"
     inkscape:window-x="1911"
     inkscape:cy="1250"
     inkscape:cx="1111"
     inkscape:zoom="0.332"
     showgrid="false"
     id="namedview10"
     inkscape:window-height="1001"
     inkscape:window-width="1920"
     inkscape:pageshadow="2"
     inkscape:pageopacity="0"
     guidetolerance="10"
     gridtolerance="10"
     objecttolerance="10"
     borderopacity="1"
     bordercolor="#666666"
     pagecolor="#ffffff" />
  <path
     style="fill:#b0dfbc;fill-opacity:1"
     id="path2"
     fill="#A9B9CB"
     d="M255.987 85.672c-.002-4.843-1.037-9.122-3.129-12.794-2.055-3.612-5.134-6.638-9.262-9.032-34.081-19.67-68.195-39.28-102.264-58.97-9.185-5.307-18.091-5.114-27.208.27-13.565 8.008-81.481 46.956-101.719 58.689C4.071 68.665.015 76.056.013 85.663 0 125.221.013 164.777 0 204.336c.002 4.736.993 8.932 2.993 12.55 2.056 3.72 5.177 6.83 9.401 9.278 20.239 11.733 88.164 50.678 101.726 58.688 9.121 5.387 18.027 5.579 27.215.27 34.07-19.691 68.186-39.3 102.272-58.97 4.224-2.447 7.345-5.559 9.401-9.276 1.997-3.618 2.99-7.814 2.992-12.551 0 0 0-79.094-.013-118.653" />
  <path
     style="fill:#9ff69f;fill-opacity:1"
     id="path4"
     fill="#7F8B99"
     d="M141.101 5.134c-9.17-5.294-18.061-5.101-27.163.269C100.395 13.39 32.59 52.237 12.385 63.94 4.064 68.757.015 76.129.013 85.711 0 125.166.013 164.62 0 204.076c.002 4.724.991 8.909 2.988 12.517 2.053 3.711 5.169 6.813 9.386 9.254a9008.51 9008.51 0 0 0 20.159 11.62L219.625 50.375c-26.178-15.074-52.363-30.136-78.524-45.241" />
  <text
     transform="matrix(62.111591,0,0,43.143666,-6326.8091,-4625.5177)"
     style="font-style:normal;font-weight:normal;font-size:4.60846px;line-height:1.25;font-family:sans-serif;white-space:pre;shape-inside:url(#rect841);fill:#000000;fill-opacity:1;stroke:none;"
     id="text839"
     xml:space="preserve"><tspan
       x="102.71875"
       y="112.33327"><tspan>F</tspan></tspan></text>
</svg>
