<svg xmlns="http://www.w3.org/2000/svg" viewBox="0 0 512 512"><defs><style>.a{fill:#edebea;}.b{fill:#234b7d;}.c{fill:#408ae7;}.d{fill:#f06723;}</style></defs><title>autolisp-icon</title><path class="a" d="M256,484.24a66,66,0,0,1-33-8.84L82.49,394.28a66.19,66.19,0,0,1-33-57.16V174.88a66.2,66.2,0,0,1,33-57.16L223,36.6a66,66,0,0,1,66,0l140.51,81.12a66.2,66.2,0,0,1,33,57.16V337.12a66.19,66.19,0,0,1-33,57.16L289,475.4A66,66,0,0,1,256,484.24Z"/><path class="b" d="M256,37.76a56,56,0,0,1,28,7.5l140.51,81.12a56.16,56.16,0,0,1,28,48.5V337.12a56.16,56.16,0,0,1-28,48.5L284,466.74a56,56,0,0,1-56,0L87.49,385.62a56.16,56.16,0,0,1-28-48.5V174.88a56.16,56.16,0,0,1,28-48.5L228,45.26a56,56,0,0,1,28-7.5m0-20a75.94,75.94,0,0,0-38,10.18L77.49,109.06a76,76,0,0,0-38,65.82V337.12a76,76,0,0,0,38,65.82L218,484.06a76,76,0,0,0,76,0l140.51-81.12a76,76,0,0,0,38-65.82V174.88a76,76,0,0,0-38-65.82L294,27.94a75.94,75.94,0,0,0-38-10.18Z"/><path class="c" d="M193,332.83c-21.76-24-39.21-50.78-39.21-92.94,0-42.39,16.09-68.68,39.21-94.29l20.4,14.05c-16.09,20.85-27,44.43-27,79.11,0,35.59,10.65,58.93,27,80Z"/><path class="c" d="M319,332.83l-20.4-14.06c16.09-20.85,27-44.42,27-79.1,0-35.59-10.65-58.94-27-80L319,145.6c21.76,24,39.21,50.77,39.21,92.93C358.22,280.92,342.13,307.21,319,332.83Z"/><path class="d" d="M185.1,403.7V358.9h9v36h22.46v8.83Z"/><path class="d" d="M225.42,403.7V358.9h9v44.8Z"/><path class="d" d="M261.77,404.4c-7.49,0-14-3.13-17.4-8.12l6.46-5.76a14.53,14.53,0,0,0,11.45,5.12c5.32,0,7.81-1.48,7.81-4.87,0-2.88-1.53-4.16-10-6.08-8.26-1.92-14-4.54-14-13.37,0-8.13,7.17-13.12,16-13.12a21.39,21.39,0,0,1,16.32,7L272,371.51c-2.88-2.94-6.08-4.61-10.18-4.61-4.8,0-6.4,2.05-6.4,4,0,2.82,1.92,3.72,9,5.38s15,4.1,15,13.82C279.37,398.64,274,404.4,261.77,404.4Z"/><path class="d" d="M307.66,387.83H297.8V403.7h-9V358.9h19.59c8.45,0,15.42,4.67,15.42,14.21C323.85,383.48,316.94,387.83,307.66,387.83Zm.45-20.22H297.8v11.52h10.44c4.15,0,6.39-1.92,6.39-5.83S312.08,367.61,308.11,367.61Z"/></svg>