<?xml version="1.0" encoding="utf-8"?>
<!-- Generator: Adobe Illustrator 16.0.0, SVG Export Plug-In . SVG Version: 6.00 Build 0)  -->
<!DOCTYPE svg PUBLIC "-//W3C//DTD SVG 1.1//EN" "http://www.w3.org/Graphics/SVG/1.1/DTD/svg11.dtd">
<svg version="1.1" id="Layer_1" xmlns="http://www.w3.org/2000/svg" xmlns:xlink="http://www.w3.org/1999/xlink" x="0px" y="0px"
	 width="10000px" height="10000px" viewBox="0 0 10000 10000" enable-background="new 0 0 10000 10000" xml:space="preserve">
<polygon fill="#39449D" stroke="#000000" stroke-width="15" stroke-miterlimit="10" points="6495.5,826.01 7625.5,173.773 
	8755.5,826.01 8755.5,2130.48 7625.5,2782.717 6495.5,2130.48 "/>
<polygon fill="#8E396B" stroke="#000000" stroke-width="15" stroke-miterlimit="10" points="7625.5,2786.521 8755.5,2134.287 
	9885.5,2786.521 9885.5,4090.993 8755.5,4743.229 7625.5,4090.993 "/>
<polygon fill="#E74865" stroke="#000000" stroke-width="15" stroke-miterlimit="10" points="5365.5,2786.521 6495.5,2134.287 
	7625.5,2786.521 7625.5,4090.993 6495.5,4743.229 5365.5,4090.993 "/>
<polygon fill="#F0433A" stroke="#000000" stroke-width="15" stroke-miterlimit="10" points="4234.5,830.585 5365,178.35 
	6495.5,830.585 6495.5,2135.056 5365,2787.292 4234.5,2135.056 "/>
<polygon fill="#FF5222" stroke="#000000" stroke-width="15" stroke-miterlimit="10" points="1974.5,830.585 3104.5,178.35 
	4234.5,830.585 4234.5,2135.056 3104.5,2787.292 1974.5,2135.056 "/>
<polygon fill="#FD5C1E" stroke="#000000" stroke-width="15" stroke-miterlimit="10" points="3105.5,2786.521 4235.5,2134.287 
	5365.5,2786.521 5365.5,4090.993 4235.5,4743.229 3105.5,4090.993 "/>
<polygon fill="#FDB513" stroke="#000000" stroke-width="15" stroke-miterlimit="10" points="844.5,2786.521 1975,2134.287 
	3105.5,2786.521 3105.5,4090.993 1975,4743.229 844.5,4090.993 "/>
<polygon fill="#FC9912" stroke="#000000" stroke-width="15" stroke-miterlimit="10" points="1974.5,4744.745 3104.5,4092.509 
	4234.5,4744.745 4234.5,6049.216 3104.5,6701.453 1974.5,6049.216 "/>
<polygon fill="#FF6F1D" stroke="#000000" stroke-width="15" stroke-miterlimit="10" points="4234.5,4744.745 5365,4092.509 
	6495.5,4744.745 6495.5,6049.216 5365,6701.453 4234.5,6049.216 "/>
<polygon fill="#C44676" stroke="#000000" stroke-width="15" stroke-miterlimit="10" points="6495.5,4744.745 7625.5,4092.509 
	8755.5,4744.745 8755.5,6049.216 7625.5,6701.453 6495.5,6049.216 "/>
<polygon fill="#FF721E" stroke="#000000" stroke-width="15" stroke-miterlimit="10" points="3105.301,6701.314 -3676.081,10620.051 
	-4805.72,9966.299 1975.07,6049.08 "/>
<polygon fill="#FD9B26" stroke="#000000" stroke-width="15" stroke-miterlimit="10" points="1974.479,4744.852 -4806.903,8663.588 
	-5936.542,8009.835 844.249,4092.616 "/>
<polygon fill="#FB551C" stroke="#000000" stroke-width="15" stroke-miterlimit="10" points="5365.762,6701.314 -1415.62,10620.051 
	-2545.259,9966.299 4235.531,6049.08 "/>
<polygon fill="#39449D" stroke="#000000" stroke-width="15" stroke-miterlimit="10" points="7625.04,6701.314 843.657,10620.051 
	-285.981,9966.299 6494.81,6049.08 "/>
<polygon fill="#FF721E" stroke="#000000" stroke-width="15" stroke-miterlimit="10" points="-4806.312,9966.74 1973.888,6051.943 
	1974.479,4743.668 -4806.903,8662.51 "/>
<polygon fill="#FD9B26" stroke="#000000" stroke-width="15" stroke-miterlimit="10" points="-5935.951,8009.092 844.249,4094.298 
	844.84,2786.021 -5936.542,6704.863 "/>
<polygon fill="#FF4847" stroke="#000000" stroke-width="15" stroke-miterlimit="10" points="-4806.312,6053.811 1973.888,2139.018 
	1974.479,830.742 -4806.903,4749.583 "/>
</svg>
